<svg xmlns="http://www.w3.org/2000/svg" xmlns:xlink="http://www.w3.org/1999/xlink" width="306" height="255" viewBox="0 0 306 255">
    <defs>
        <path id="a" d="M10.339 10.983H.079V.65h10.26z"/>
        <linearGradient id="c" x1="50%" x2="50%" y1="0%" y2="100%">
            <stop offset="0%" stop-color="#121229"/>
            <stop offset="100%" stop-color="#121229" stop-opacity="0"/>
        </linearGradient>
    </defs>
    <g fill="none" fill-rule="evenodd">
        <path fill="#111129" d="M31.057 227.616c.833 0 1.404-.49 1.404-1.258 0-.798-.57-1.272-1.404-1.272h-1.28v2.53h1.28zm-1.296 1.902v3.565h-2.198v-9.912h3.717c2.003 0 3.383 1.328 3.383 3.174 0 1.873-1.38 3.173-3.383 3.173h-1.52z"/>
        <g transform="translate(36.832 222.31)">
            <mask id="b" fill="#fff">
                <use xlink:href="#a"/>
            </mask>
            <path fill="#111129" d="M5.216 8.802c1.364 0 2.839-.923 2.839-2.992 0-2.071-1.475-3.005-2.84-3.005-1.379 0-2.854.934-2.854 3.005 0 2.07 1.475 2.992 2.855 2.992m0-8.151c2.77 0 5.123 2.027 5.123 5.172 0 3.133-2.353 5.16-5.123 5.16-2.784 0-5.136-2.027-5.136-5.16C.08 2.678 2.432.651 5.216.651" mask="url(#b)"/>
        </g>
        <path fill="#111129" d="M50.127 233.081h2.227v-9.913h-2.227zM62.124 233.083l-4.064-6.515v6.515h-2.187v-9.913h2.673l3.704 6.025v-6.025h2.198v9.913zM72.39 225.282v7.8h-2.2v-7.8h-3.033v-2.111h8.282v2.11zM37.412 217.696v-9.913h6.25v2.085H39.61v1.886h3.677v1.942H39.61v1.902h4.066v2.098zM50.408 212.104c.904 0 1.393-.503 1.393-1.202 0-.742-.49-1.203-1.393-1.203h-1.296v2.405h1.296zm-.516 1.902h-.78v3.69h-2.198v-9.913h3.911c1.948 0 3.202 1.342 3.202 3.104 0 1.342-.738 2.363-1.948 2.798l2.003 4.011H51.66l-1.767-3.69zM56.402 212.76c0-3.09 2.337-5.185 5.094-5.185 2.965 0 4.274 1.915 4.595 3.34l-2.074.658c-.153-.684-.78-1.846-2.52-1.846-1.323 0-2.813.952-2.813 3.034 0 1.86 1.364 2.937 2.841 2.937 1.711 0 2.395-1.147 2.59-1.86l2.1.601c-.32 1.37-1.628 3.466-4.69 3.466-2.841 0-5.123-2.054-5.123-5.144M69.104 217.696v-9.913h6.251v2.085h-4.053v1.886h3.677v1.942h-3.677v1.902h4.066v2.098zM82.1 212.23c.834 0 1.404-.49 1.404-1.259 0-.797-.57-1.271-1.404-1.271h-1.28v2.53h1.28zm-1.296 1.902v3.565h-2.197v-9.913h3.716c2.003 0 3.383 1.33 3.383 3.174 0 1.874-1.38 3.174-3.383 3.174h-1.519zM92.952 209.895v7.8h-2.2v-7.8H87.72v-2.11H96v2.11zM98.723 217.697h2.227v-9.913h-2.227zM109.034 215.725c1.364 0 2.839-.922 2.839-2.992 0-2.069-1.475-3.004-2.839-3.004-1.38 0-2.854.935-2.854 3.004 0 2.07 1.474 2.992 2.854 2.992m0-8.151c2.77 0 5.123 2.027 5.123 5.173 0 3.132-2.353 5.16-5.123 5.16-2.784 0-5.136-2.028-5.136-5.16 0-3.146 2.352-5.173 5.136-5.173M123.364 217.696l-4.064-6.515v6.515h-2.187v-9.913h2.673l3.704 6.025v-6.025h2.197v9.913zM31.057 212.23c.833 0 1.404-.49 1.404-1.259 0-.797-.57-1.271-1.404-1.271h-1.28v2.53h1.28zm-1.296 1.902v3.565h-2.198v-9.913h3.717c2.003 0 3.383 1.33 3.383 3.174 0 1.874-1.38 3.174-3.383 3.174h-1.52z"/>
        <path fill="#FF5400" d="M45.907 207.784h.216-.216zM25.826 198.358c0 4.617-3.767 8.358-8.413 8.358-4.647 0-8.413-3.741-8.413-8.358 0-4.615 3.766-8.358 8.413-8.358 4.646 0 8.413 3.743 8.413 8.358M26.708 191.195v-.762l-.334.762h-.192l-.325-.754v.754h-.25V190h.327l.352.832.354-.832h.305v1.195h-.237zm-1.678-.973v.973h-.25v-.973h-.369V190h.988v.222h-.369z"/>
        <text fill="#858591" font-family="CircularStd-Black, Circular Std" font-size="10" font-weight="700" letter-spacing=".006">
            <tspan x="232" y="77">APPLICATIONS</tspan>
        </text>
        <text fill="#E9561D" font-family="CircularStd-Black, Circular Std" font-size="10" font-weight="700" letter-spacing="-.012">
            <tspan x="234" y="132">CPU</tspan>
        </text>
        <text fill="#858591" font-family="CircularStd-Black, Circular Std" font-size="10" font-weight="700" letter-spacing=".006">
            <tspan x="233" y="99">OPERATING </tspan> <tspan x="233" y="111">SYSTEMS</tspan>
        </text>
        <text fill="#FF5400" font-family="CircularStd-Black, Circular Std" font-size="13" font-weight="700" letter-spacing="-.016">
            <tspan x="164" y="217">CPU level visibility</tspan>
        </text>
        <text fill="#858591" font-family="CircularStd-Book, Circular Std" font-size="13" font-weight="300" letter-spacing="-.471">
            <tspan x="164" y="236">Feeds into Perception </tspan> <tspan x="164" y="252">Point algorithms</tspan>
        </text>
        <path fill="url(#c)" fill-rule="nonzero" d="M34 155v33.168h3.148v-31.64z"/>
        <g>
            <path fill="#FF5401" d="M.705 140.423l84.904 45.373 142.262-57.262-85.97-37.02z"/>
            <path fill="#FED11C" fill-opacity=".524" d="M.705 113.145l84.904 45.372 142.262-55.887-85.97-37.364z" opacity=".9"/>
            <path fill="#FED11C" fill-opacity=".524" d="M.705 85.897l84.904 45.373 142.262-55.887-85.97-37.364z" opacity=".9"/>
            <g>
                <path fill="#FFF" d="M54.66 77.034V21.09L129.637.214v51.36z"/>
                <path fill="#FFF" d="M54.66 77.034l46.121 24.452 76.135-28.097-47.279-21.816z"/>
                <path fill="#C6C6C6" d="M57.493 72.515V23.19L127.25 3.787l-.325 45.827z" opacity=".2"/>
            </g>
        </g>
        <path fill="#121229" fill-rule="nonzero" d="M71.704 86.566L34.29 100.173l3.773 1.962 37.692-13.48zM34 107v20.6l3.145 1.934v-20.897zM34 134v20.6l3.145 1.934v-20.897z"/>
    </g>
</svg>
