<svg xmlns="http://www.w3.org/2000/svg" xmlns:xlink="http://www.w3.org/1999/xlink" width="127" height="48" viewBox="0 0 127 48">
    <defs>
        <path id="a" d="M12.634 12H1.498V.71h11.136z"/>
    </defs>
    <g fill="none" fill-rule="evenodd">
        <path fill="#111129" d="M23.942 41.101c.904 0 1.524-.535 1.524-1.375 0-.871-.62-1.39-1.524-1.39h-1.39v2.765h1.39zm-1.407 2.079v3.895H20.15V36.244h4.034c2.174 0 3.672 1.452 3.672 3.468 0 2.047-1.498 3.468-3.672 3.468h-1.649z"/>
        <g transform="translate(28.8 35.303)">
            <mask id="b" fill="#fff">
                <use xlink:href="#a"/>
            </mask>
            <path fill="#111129" d="M7.073 9.617c1.48 0 3.081-1.008 3.081-3.269 0-2.263-1.6-3.283-3.081-3.283-1.498 0-3.099 1.02-3.099 3.283 0 2.261 1.601 3.27 3.099 3.27m0-8.907c3.007 0 5.56 2.215 5.56 5.652 0 3.422-2.553 5.637-5.56 5.637-3.022 0-5.575-2.215-5.575-5.637C1.498 2.926 4.05.71 7.073.71" mask="url(#b)"/>
        </g>
        <path fill="#111129" d="M44.642 47.072h2.417v-10.83h-2.417zM57.664 47.074l-4.41-7.119v7.119H50.88V36.243h2.901l4.02 6.583v-6.583h2.386v10.83zM68.808 38.55v8.523H66.42V38.55h-3.293v-2.306h8.99v2.306zM30.84 30.262V19.43h6.786v2.277h-4.4v2.062h3.992v2.121h-3.992v2.079h4.414v2.292zM44.947 24.151c.981 0 1.512-.55 1.512-1.312 0-.812-.53-1.316-1.512-1.316H43.54v2.628h1.407zm-.56 2.079h-.847v4.032h-2.385V19.43H45.4c2.115 0 3.476 1.466 3.476 3.39 0 1.467-.802 2.583-2.115 3.058l2.175 4.383h-2.63l-1.918-4.032zM51.454 24.87c0-3.377 2.536-5.667 5.53-5.667 3.218 0 4.638 2.093 4.986 3.65l-2.25.718c-.166-.746-.848-2.016-2.737-2.016-1.435 0-3.053 1.04-3.053 3.315 0 2.032 1.481 3.208 3.084 3.208 1.858 0 2.6-1.252 2.81-2.032l2.28.657c-.347 1.498-1.766 3.787-5.09 3.787-3.084 0-5.56-2.244-5.56-5.62M65.242 30.262V19.43h6.784v2.277h-4.399v2.062h3.991v2.121h-3.99v2.079h4.413v2.292zM79.348 24.29c.905 0 1.524-.536 1.524-1.376 0-.871-.62-1.39-1.524-1.39h-1.39v2.765h1.39zm-1.407 2.078v3.895h-2.385V19.432h4.034c2.175 0 3.672 1.452 3.672 3.468 0 2.047-1.497 3.468-3.672 3.468h-1.649zM91.128 21.738v8.523H88.74v-8.523h-3.293v-2.306h8.99v2.306zM97.392 30.263h2.417V19.432h-2.417zM108.584 28.108c1.48 0 3.082-1.008 3.082-3.268 0-2.261-1.601-3.284-3.082-3.284-1.498 0-3.098 1.023-3.098 3.284 0 2.26 1.6 3.268 3.098 3.268m0-8.906c3.007 0 5.56 2.215 5.56 5.652 0 3.422-2.553 5.638-5.56 5.638-3.022 0-5.575-2.216-5.575-5.638 0-3.437 2.553-5.652 5.575-5.652M124.138 30.262l-4.41-7.119v7.119h-2.374V19.43h2.901l4.02 6.583V19.43h2.386v10.83zM23.942 24.29c.904 0 1.524-.536 1.524-1.376 0-.871-.62-1.39-1.524-1.39h-1.39v2.765h1.39zm-1.407 2.078v3.895H20.15V19.432h4.034c2.174 0 3.672 1.452 3.672 3.468 0 2.047-1.498 3.468-3.672 3.468h-1.649z"/>
        <path fill="#FF5400" d="M40.061 19.432h.235-.235zM18.264 9.132a9.132 9.132 0 0 1-9.132 9.132A9.13 9.13 0 0 1 0 9.132a9.132 9.132 0 1 1 18.264 0M19.222 1.306V.473l-.363.833h-.208l-.353-.824v.824h-.271V0h.355l.381.91.384-.91h.332v1.306h-.257zM17.4.242v1.064h-.271V.242h-.4V0H17.8v.242h-.4z"/>
    </g>
</svg>
